%TF.GenerationSoftware,KiCad,Pcbnew,9.0.6*%
%TF.CreationDate,2026-05-16T03:04:43-04:00*%
%TF.ProjectId,antic_switch,616e7469-635f-4737-9769-7463682e6b69,rev?*%
%TF.SameCoordinates,Original*%
%TF.FileFunction,Soldermask,Top*%
%TF.FilePolarity,Negative*%
%FSLAX46Y46*%
G04 Gerber Fmt 4.6, Leading zero omitted, Abs format (unit mm)*
G04 Created by KiCad (PCBNEW 9.0.6) date 2026-05-16 03:04:43*
%MOMM*%
%LPD*%
G01*
G04 APERTURE LIST*
G04 Aperture macros list*
%AMRoundRect*
0 Rectangle with rounded corners*
0 $1 Rounding radius*
0 $2 $3 $4 $5 $6 $7 $8 $9 X,Y pos of 4 corners*
0 Add a 4 corners polygon primitive as box body*
4,1,4,$2,$3,$4,$5,$6,$7,$8,$9,$2,$3,0*
0 Add four circle primitives for the rounded corners*
1,1,$1+$1,$2,$3*
1,1,$1+$1,$4,$5*
1,1,$1+$1,$6,$7*
1,1,$1+$1,$8,$9*
0 Add four rect primitives between the rounded corners*
20,1,$1+$1,$2,$3,$4,$5,0*
20,1,$1+$1,$4,$5,$6,$7,0*
20,1,$1+$1,$6,$7,$8,$9,0*
20,1,$1+$1,$8,$9,$2,$3,0*%
%AMFreePoly0*
4,1,33,0.246742,0.813399,0.400687,0.749633,0.539234,0.657059,0.657059,0.539234,0.749633,0.400687,0.813399,0.246742,0.845907,0.083315,0.845907,-0.083315,0.813399,-0.246742,0.749633,-0.400687,0.657059,-0.539234,0.539234,-0.657059,0.400687,-0.749633,0.246742,-0.813399,0.083315,-0.845907,-0.083315,-0.845907,-0.246742,-0.813399,-0.400687,-0.749633,-0.539234,-0.657059,-0.657059,-0.539234,
-0.749633,-0.400687,-0.813399,-0.246742,-0.845907,-0.083315,-0.845907,0.083315,-0.813399,0.246742,-0.749633,0.400687,-0.657059,0.539234,-0.539234,0.657059,-0.400687,0.749633,-0.246742,0.813399,-0.083315,0.845907,0.083315,0.845907,0.246742,0.813399,0.246742,0.813399,$1*%
G04 Aperture macros list end*
%ADD10RoundRect,0.250000X-0.550000X-0.550000X0.550000X-0.550000X0.550000X0.550000X-0.550000X0.550000X0*%
%ADD11C,1.600000*%
%ADD12RoundRect,0.250000X0.450000X-0.262500X0.450000X0.262500X-0.450000X0.262500X-0.450000X-0.262500X0*%
%ADD13C,1.700000*%
%ADD14FreePoly0,0.000000*%
%ADD15C,2.200000*%
%ADD16O,1.750000X1.200000*%
G04 APERTURE END LIST*
D10*
%TO.C,U4*%
X129540000Y-63500000D03*
D11*
X129540000Y-66040000D03*
X129540000Y-68580000D03*
X129540000Y-71120000D03*
X129540000Y-73660000D03*
X129540000Y-76200000D03*
X129540000Y-78740000D03*
X129540000Y-81280000D03*
X129540000Y-83820000D03*
X129540000Y-86360000D03*
X137160000Y-86360000D03*
X137160000Y-83820000D03*
X137160000Y-81280000D03*
X137160000Y-78740000D03*
X137160000Y-76200000D03*
X137160000Y-73660000D03*
X137160000Y-71120000D03*
X137160000Y-68580000D03*
X137160000Y-66040000D03*
X137160000Y-63500000D03*
%TD*%
%TO.C,R1*%
X111760000Y-96545400D03*
D12*
X111775000Y-93657900D03*
X111775000Y-91832900D03*
D11*
X111760000Y-88925400D03*
%TD*%
D13*
%TO.C,J1*%
X142240000Y-68580000D03*
X142240000Y-71120000D03*
X142240000Y-73660000D03*
%TD*%
D11*
%TO.C,R2*%
X134620000Y-96520000D03*
D12*
X134635000Y-93632500D03*
X134635000Y-91807500D03*
D11*
X134620000Y-88900000D03*
%TD*%
D10*
%TO.C,P1*%
X101600000Y-50800000D03*
D11*
X101600000Y-53340000D03*
X101600000Y-55880000D03*
X101600000Y-58420000D03*
X101600000Y-60960000D03*
X101600000Y-63500000D03*
X101600000Y-66040000D03*
X101600000Y-68580000D03*
X101600000Y-71120000D03*
X101600000Y-73660000D03*
X101600000Y-76200000D03*
X101600000Y-78740000D03*
X101600000Y-81280000D03*
X101600000Y-83820000D03*
X101600000Y-86360000D03*
X101600000Y-88900000D03*
X101600000Y-91440000D03*
X101600000Y-93980000D03*
X101600000Y-96520000D03*
X101600000Y-99060000D03*
X116840000Y-99060000D03*
X116840000Y-96520000D03*
X116840000Y-93980000D03*
X116840000Y-91440000D03*
X116840000Y-88900000D03*
X116840000Y-86360000D03*
X116840000Y-83820000D03*
X116840000Y-81280000D03*
X116840000Y-78740000D03*
X116840000Y-76200000D03*
X116840000Y-73660000D03*
X116840000Y-71120000D03*
X116840000Y-68580000D03*
X116840000Y-66040000D03*
X116840000Y-63500000D03*
X116840000Y-60960000D03*
X116840000Y-58420000D03*
X116840000Y-55880000D03*
X116840000Y-53340000D03*
X116840000Y-50800000D03*
%TD*%
D10*
%TO.C,U1*%
X104140000Y-50800000D03*
D11*
X104140000Y-53340000D03*
X104140000Y-55880000D03*
X104140000Y-58420000D03*
X104140000Y-60960000D03*
X104140000Y-63500000D03*
X104140000Y-66040000D03*
X104140000Y-68580000D03*
X104140000Y-71120000D03*
X104140000Y-73660000D03*
X104140000Y-76200000D03*
X104140000Y-78740000D03*
X104140000Y-81280000D03*
X104140000Y-83820000D03*
X104140000Y-86360000D03*
X104140000Y-88900000D03*
X104140000Y-91440000D03*
X104140000Y-93980000D03*
X104140000Y-96520000D03*
X104140000Y-99060000D03*
X119380000Y-99060000D03*
X119380000Y-96520000D03*
X119380000Y-93980000D03*
X119380000Y-91440000D03*
X119380000Y-88900000D03*
X119380000Y-86360000D03*
X119380000Y-83820000D03*
X119380000Y-81280000D03*
X119380000Y-78740000D03*
X119380000Y-76200000D03*
X119380000Y-73660000D03*
X119380000Y-71120000D03*
X119380000Y-68580000D03*
X119380000Y-66040000D03*
X119380000Y-63500000D03*
X119380000Y-60960000D03*
X119380000Y-58420000D03*
X119380000Y-55880000D03*
X119380000Y-53340000D03*
X119380000Y-50800000D03*
%TD*%
D14*
%TO.C,J3*%
X142240000Y-81280000D03*
D13*
X144780000Y-81280000D03*
X142240000Y-83820000D03*
X144780000Y-83820000D03*
X142240000Y-86360000D03*
X144780000Y-86360000D03*
X142240000Y-88900000D03*
X144780000Y-88900000D03*
X142240000Y-91440000D03*
X144780000Y-91440000D03*
%TD*%
D10*
%TO.C,U2*%
X106685000Y-63500000D03*
D11*
X106685000Y-66040000D03*
X106685000Y-68580000D03*
X106685000Y-71120000D03*
X106685000Y-73660000D03*
X106685000Y-76200000D03*
X106685000Y-78740000D03*
X106685000Y-81280000D03*
X106685000Y-83820000D03*
X106685000Y-86360000D03*
X114305000Y-86360000D03*
X114305000Y-83820000D03*
X114305000Y-81280000D03*
X114305000Y-78740000D03*
X114305000Y-76200000D03*
X114305000Y-73660000D03*
X114305000Y-71120000D03*
X114305000Y-68580000D03*
X114305000Y-66040000D03*
X114305000Y-63500000D03*
%TD*%
D15*
%TO.C,MH2*%
X143510000Y-96520000D03*
%TD*%
%TO.C,MH1*%
X143510000Y-53340000D03*
%TD*%
D16*
%TO.C,J2*%
X142711000Y-63000000D03*
X142711000Y-61000000D03*
X142711000Y-59000000D03*
%TD*%
D10*
%TO.C,U3*%
X124460000Y-50800000D03*
D11*
X124460000Y-53340000D03*
X124460000Y-55880000D03*
X124460000Y-58420000D03*
X124460000Y-60960000D03*
X124460000Y-63500000D03*
X124460000Y-66040000D03*
X124460000Y-68580000D03*
X124460000Y-71120000D03*
X124460000Y-73660000D03*
X124460000Y-76200000D03*
X124460000Y-78740000D03*
X124460000Y-81280000D03*
X124460000Y-83820000D03*
X124460000Y-86360000D03*
X124460000Y-88900000D03*
X124460000Y-91440000D03*
X124460000Y-93980000D03*
X124460000Y-96520000D03*
X124460000Y-99060000D03*
X139700000Y-99060000D03*
X139700000Y-96520000D03*
X139700000Y-93980000D03*
X139700000Y-91440000D03*
X139700000Y-88900000D03*
X139700000Y-86360000D03*
X139700000Y-83820000D03*
X139700000Y-81280000D03*
X139700000Y-78740000D03*
X139700000Y-76200000D03*
X139700000Y-73660000D03*
X139700000Y-71120000D03*
X139700000Y-68580000D03*
X139700000Y-66040000D03*
X139700000Y-63500000D03*
X139700000Y-60960000D03*
X139700000Y-58420000D03*
X139700000Y-55880000D03*
X139700000Y-53340000D03*
X139700000Y-50800000D03*
%TD*%
M02*
